<?xml version="1.0" standalone="no"?>
<!DOCTYPE svg PUBLIC "-//W3C//DTD SVG 20010904//EN"
 "http://www.w3.org/TR/2001/REC-SVG-20010904/DTD/svg10.dtd">
<svg version="1.0" xmlns="http://www.w3.org/2000/svg"
 width="654.000000pt" height="255.000000pt" viewBox="0 0 654.000000 255.000000"
 preserveAspectRatio="xMidYMid meet">

<g transform="translate(0.000000,255.000000) scale(0.100000,-0.100000)"
fill="#000000" stroke="none">
<path d="M3220 2073 c-29 -10 -67 -54 -89 -101 l-23 -48 81 -81 c93 -93 133
-165 139 -256 5 -68 17 -65 53 16 21 46 24 67 24 182 0 125 -1 132 -30 190
-42 82 -99 118 -155 98z"/>
<path d="M2871 1926 c-53 -29 -65 -104 -31 -184 l20 -47 100 3 c122 5 213 -19
281 -73 41 -32 44 -33 47 -14 6 34 -47 127 -110 195 -100 107 -235 160 -307
120z"/>
<path d="M3491 1922 l-43 -17 -2 -120 c-2 -139 -24 -211 -83 -276 l-35 -39 26
0 c40 0 137 53 197 108 67 61 116 141 131 213 9 46 9 60 -6 90 -28 60 -97 75
-185 41z"/>
<path d="M2910 1664 c-129 -22 -230 -88 -230 -150 0 -42 33 -89 82 -117 73
-42 79 -42 121 14 44 56 145 132 205 153 22 8 61 18 87 22 40 5 45 9 33 20
-36 37 -218 72 -298 58z"/>
<path d="M3590 1571 c-88 -91 -161 -131 -253 -140 l-62 -7 35 -22 c55 -35 126
-52 220 -52 96 0 174 19 230 56 91 60 84 156 -16 210 -70 39 -72 38 -154 -45z"/>
<path d="M3130 1541 c-87 -27 -188 -105 -244 -190 -65 -99 -81 -167 -55 -225
26 -56 120 -69 198 -28 l32 17 3 120 c2 138 22 203 82 273 35 42 32 47 -16 33z"/>
<path d="M3137 1430 c-37 -77 -52 -181 -37 -272 19 -123 61 -197 126 -218 61
-21 130 33 161 124 9 28 6 33 -62 98 -85 80 -130 158 -148 255 l-13 68 -27
-55z"/>
<path d="M3217 1398 c11 -61 55 -132 122 -199 84 -84 155 -122 233 -123 50 -1
61 3 85 27 24 23 28 35 27 81 0 30 -8 72 -18 93 l-18 40 -79 -5 c-132 -8 -248
24 -318 88 -18 17 -34 30 -36 30 -3 0 -2 -15 2 -32z"/>
<path d="M905 788 c-48 -26 -65 -51 -65 -94 0 -56 36 -92 147 -146 96 -47 118
-72 109 -122 -9 -45 -46 -69 -105 -68 -71 1 -112 59 -77 108 29 39 -34 63 -67
26 -35 -38 -12 -95 48 -125 81 -39 186 -26 235 29 58 66 28 137 -80 191 -108
55 -139 76 -151 104 -30 74 87 134 146 74 29 -28 31 -43 11 -71 -27 -36 25
-62 58 -28 37 36 8 99 -57 123 -37 14 -126 14 -152 -1z"/>
<path d="M1745 783 c-78 -41 -116 -112 -117 -218 0 -112 51 -190 140 -215 58
-16 68 -12 31 13 -53 35 -82 104 -87 209 -5 109 2 149 34 188 20 23 34 30 61
30 76 0 123 -96 124 -253 0 -99 -19 -152 -62 -174 -13 -7 -18 -13 -10 -13 8 0
33 11 57 25 90 53 127 211 74 320 -44 90 -161 133 -245 88z"/>
<path d="M2727 793 c-2 -4 -28 -79 -57 -166 -29 -87 -54 -156 -57 -154 -7 8
-103 270 -103 283 0 7 8 18 18 23 12 8 -5 10 -66 11 l-83 0 26 -22 c19 -17 46
-77 100 -223 40 -110 77 -201 82 -202 4 -2 35 75 67 169 33 95 61 168 63 163
52 -141 130 -329 137 -330 5 0 39 88 75 197 37 108 75 206 85 217 23 25 61 28
70 5 3 -9 6 -95 6 -193 0 -180 -4 -201 -40 -214 -8 -3 26 -6 75 -6 79 -1 87 1
65 12 l-25 13 -3 191 c-2 164 0 193 14 207 14 15 5 16 -110 16 -125 0 -126 0
-107 -19 20 -20 20 -21 -24 -150 -24 -72 -47 -135 -50 -142 -4 -6 -35 62 -70
152 -57 150 -75 184 -88 162z"/>
<path d="M3302 783 c-19 -9 -41 -31 -49 -49 -31 -65 3 -114 119 -174 135 -69
162 -107 118 -163 -23 -30 -74 -47 -114 -40 -52 10 -85 85 -51 113 20 17 2 40
-31 40 -31 0 -54 -26 -54 -61 0 -91 177 -139 273 -75 65 44 71 110 16 166 -17
16 -64 46 -106 65 -41 20 -86 47 -99 60 -48 48 -20 112 53 122 72 10 116 -36
88 -91 -11 -21 -11 -27 1 -37 22 -18 63 -2 70 28 9 36 -13 74 -56 95 -44 23
-134 23 -178 1z"/>
<path d="M4726 792 c-2 -4 -36 -93 -75 -197 -71 -191 -98 -235 -140 -235 -38
0 -41 18 -41 217 0 172 2 193 18 202 13 8 4 10 -38 11 l-55 0 -70 -174 c-38
-96 -71 -173 -74 -171 -2 3 -39 80 -81 172 l-77 168 -59 3 c-56 3 -58 2 -36
-13 21 -16 22 -21 22 -205 l0 -189 -27 -15 c-27 -15 -26 -15 37 -15 63 0 64 0
38 15 l-28 15 1 172 c0 157 2 169 15 142 8 -16 48 -102 88 -190 41 -88 78
-161 83 -162 5 -2 42 78 82 177 41 99 78 183 82 186 5 3 9 -66 9 -153 0 -161
-4 -183 -40 -196 -8 -3 52 -6 134 -6 146 -1 148 -1 125 18 -23 18 -23 18 -5
65 l18 46 82 0 82 0 18 -50 c10 -28 17 -52 15 -54 -2 -2 -13 -8 -24 -14 -16
-9 -2 -11 69 -12 l88 0 -29 28 c-21 19 -51 81 -108 225 -72 183 -86 209 -99
189z m26 -204 l35 -93 -70 -3 c-38 -2 -72 -1 -74 2 -7 7 59 186 68 186 3 0 22
-42 41 -92z"/>
<path d="M1214 774 c13 -13 16 -45 16 -198 0 -185 -4 -206 -40 -219 -8 -3 26
-6 75 -6 79 -1 87 1 65 12 -24 12 -25 17 -28 115 l-3 102 86 0 85 0 0 -93 c0
-93 -8 -119 -40 -130 -8 -3 26 -6 75 -6 79 -1 87 1 65 12 l-25 13 -3 194 c-2
174 -1 196 15 207 14 11 5 13 -55 13 l-72 0 20 -20 c18 -18 20 -31 18 -98 l-3
-77 -82 -3 -83 -3 0 85 c0 64 4 88 16 100 14 15 9 16 -51 16 -60 0 -65 -1 -51
-16z"/>
<path d="M2074 774 c14 -14 16 -43 14 -207 l-3 -191 -25 -13 c-22 -11 -14 -13
65 -13 79 0 87 2 65 13 -22 11 -25 19 -28 80 l-3 67 39 0 c21 0 61 7 88 15 82
25 114 64 114 136 0 34 -6 47 -34 73 -45 43 -95 56 -210 56 -89 0 -96 -1 -82
-16z m214 -27 c36 -36 43 -127 13 -174 -20 -32 -67 -53 -118 -53 -23 0 -23 2
-23 131 l0 132 51 -5 c37 -4 58 -12 77 -31z"/>
<path d="M3620 770 c19 -19 20 -33 20 -198 0 -181 -4 -202 -40 -215 -8 -3 64
-6 160 -6 l175 -1 0 50 c0 40 -3 50 -16 50 -9 0 -22 -14 -29 -31 -20 -48 -37
-59 -91 -59 -85 0 -89 5 -89 122 l0 101 33 -7 c17 -3 44 -15 60 -26 l27 -21 0
63 0 62 -21 -23 c-21 -23 -59 -41 -85 -41 -12 0 -14 16 -12 93 l3 92 72 3 72
3 21 -41 c29 -57 55 -55 55 5 l0 45 -167 0 -168 0 20 -20z"/>
<path d="M4896 766 c3 -13 0 -34 -6 -46 -10 -20 -9 -21 12 -18 15 2 29 16 41
41 17 37 18 37 77 37 l60 0 0 -193 c0 -197 -4 -217 -40 -230 -8 -3 26 -6 75
-6 79 -1 87 1 65 12 l-25 13 -3 202 -2 203 57 -3 c56 -3 59 -4 76 -40 10 -23
24 -38 35 -38 15 0 17 7 14 41 -3 32 -1 40 9 37 11 -4 15 -46 17 -205 2 -199
2 -200 -20 -211 -18 -8 19 -11 155 -11 177 -1 178 -1 167 20 -8 14 -8 29 -1
50 9 25 8 29 -9 29 -11 0 -27 -16 -42 -42 -22 -41 -26 -43 -75 -46 -88 -5 -93
2 -93 120 l0 101 32 -7 c18 -3 45 -18 60 -33 l28 -27 0 69 0 69 -28 -27 c-15
-15 -42 -30 -60 -33 l-33 -7 3 94 3 94 72 3 72 3 21 -41 c13 -26 27 -40 40
-40 17 0 18 3 9 26 -5 15 -7 35 -4 45 6 18 -7 19 -380 19 l-385 0 6 -24z"/>
</g>
</svg>
